# MagicaVoxel @ Ephtracy

# group
o 

# material
mtllib crate.mtl
usemtl palette

# normals
vn -1 0 0
vn 1 0 0
vn 0 0 1
vn 0 0 -1
vn 0 -1 0
vn 0 1 0

# texcoords
vt 0.443359 0.5
vt 0.462891 0.5
vt 0.841797 0.5
vt 0.900391 0.5

# verts
v -0.8 1.1 1.3
v -0.8 1.1 -1.2
v -0.8 1.3 1.3
v -0.8 1.3 -1.2
v -0.7 0 1.2
v -0.7 0 -1.1
v -0.7 0.2 0.6
v -0.7 0.2 -0.6
v -0.7 0.3 0.6
v -0.7 0.3 -0.6
v -0.7 0.4 0.4
v -0.7 0.4 -0.4
v -0.7 0.5 0.4
v -0.7 0.5 -0.4
v -0.7 0.6 0.6
v -0.7 0.6 -0.6
v -0.7 0.8 0.6
v -0.7 0.8 -0.6
v -0.7 1.1 1.2
v -0.7 1.1 -1.1
v -0.3 1.3 0.7
v -0.3 1.3 0.6
v -0.3 1.3 -0.5
v -0.3 1.3 -0.6
v -0.3 1.4 0.6
v -0.3 1.4 -0.5
v -0.3 1.5 0.7
v -0.3 1.5 -0.6
v 0.2 1.3 0.7
v 0.2 1.3 0.6
v 0.2 1.3 -0.5
v 0.2 1.3 -0.6
v 0.2 1.4 0.6
v 0.2 1.4 -0.5
v 0.2 1.5 0.7
v 0.2 1.5 -0.6
v 0.6 0 1.2
v 0.6 0 0.1
v 0.6 0 1.19209e-07
v 0.6 0 -1.1
v 0.6 0.1 1
v 0.6 0.1 0.9
v 0.6 0.1 0.2
v 0.6 0.1 0.1
v 0.6 0.1 1.19209e-07
v 0.6 0.1 -0.0999999
v 0.6 0.1 -0.8
v 0.6 0.1 -0.9
v 0.6 0.2 1.1
v 0.6 0.2 1
v 0.6 0.2 0.9
v 0.6 0.2 0.8
v 0.6 0.2 0.3
v 0.6 0.2 0.2
v 0.6 0.2 -0.0999999
v 0.6 0.2 -0.2
v 0.6 0.2 -0.7
v 0.6 0.2 -0.8
v 0.6 0.2 -0.9
v 0.6 0.2 -1
v 0.6 0.3 1.1
v 0.6 0.3 1
v 0.6 0.3 0.9
v 0.6 0.3 0.8
v 0.6 0.3 0.4
v 0.6 0.3 0.3
v 0.6 0.3 -0.2
v 0.6 0.3 -0.3
v 0.6 0.3 -0.7
v 0.6 0.3 -0.8
v 0.6 0.3 -0.9
v 0.6 0.3 -1
v 0.6 0.4 1
v 0.6 0.4 0.9
v 0.6 0.4 0.5
v 0.6 0.4 0.4
v 0.6 0.4 -0.3
v 0.6 0.4 -0.4
v 0.6 0.4 -0.8
v 0.6 0.4 -0.9
v 0.6 0.5 0.6
v 0.6 0.5 0.5
v 0.6 0.5 -0.4
v 0.6 0.5 -0.5
v 0.6 0.7 1
v 0.6 0.7 0.9
v 0.6 0.7 -0.8
v 0.6 0.7 -0.9
v 0.6 0.8 1.1
v 0.6 0.8 1
v 0.6 0.8 0.9
v 0.6 0.8 0.8
v 0.6 0.8 0.1
v 0.6 0.8 1.19209e-07
v 0.6 0.8 -0.7
v 0.6 0.8 -0.8
v 0.6 0.8 -0.9
v 0.6 0.8 -1
v 0.6 0.9 1.1
v 0.6 0.9 1
v 0.6 0.9 0.9
v 0.6 0.9 0.8
v 0.6 0.9 0.6
v 0.6 0.9 0.5
v 0.6 0.9 0.2
v 0.6 0.9 0.1
v 0.6 0.9 1.19209e-07
v 0.6 0.9 -0.0999999
v 0.6 0.9 -0.4
v 0.6 0.9 -0.5
v 0.6 0.9 -0.7
v 0.6 0.9 -0.8
v 0.6 0.9 -0.9
v 0.6 0.9 -1
v 0.6 1 1
v 0.6 1 0.9
v 0.6 1 0.5
v 0.6 1 0.2
v 0.6 1 -0.0999999
v 0.6 1 -0.4
v 0.6 1 -0.8
v 0.6 1 -0.9
v 0.6 1.1 1.2
v 0.6 1.1 -1.1
v 0.7 1.1 1.3
v 0.7 1.1 -1.2
v 0.7 1.3 1.3
v 0.7 1.3 -1.2
v -0.8 1.1 1.3
v -0.8 1.3 1.3
v 0.7 1.1 1.3
v 0.7 1.3 1.3
v -0.7 0 1.2
v -0.7 1.1 1.2
v 0.6 0 1.2
v 0.6 1.1 1.2
v -0.3 1.3 0.7
v -0.3 1.5 0.7
v 0.2 1.3 0.7
v 0.2 1.5 0.7
v -0.3 1.3 -0.5
v -0.3 1.4 -0.5
v 0.2 1.3 -0.5
v 0.2 1.4 -0.5
v -0.3 1.3 0.6
v -0.3 1.4 0.6
v 0.2 1.3 0.6
v 0.2 1.4 0.6
v -0.3 1.3 -0.6
v -0.3 1.5 -0.6
v 0.2 1.3 -0.6
v 0.2 1.5 -0.6
v -0.7 0 -1.1
v -0.7 1.1 -1.1
v 0.6 0 -1.1
v 0.6 1.1 -1.1
v -0.8 1.1 -1.2
v -0.8 1.3 -1.2
v 0.7 1.1 -1.2
v 0.7 1.3 -1.2
v -0.7 0 1.2
v 0.6 0 1.2
v 0.5 0 0.1
v 0.6 0 0.1
v 0.5 0 1.19209e-07
v 0.6 0 1.19209e-07
v -0.7 0 -1.1
v 0.6 0 -1.1
v -0.8 1.1 1.3
v 0.7 1.1 1.3
v -0.7 1.1 1.2
v 0.6 1.1 1.2
v -0.7 1.1 -1.1
v 0.6 1.1 -1.1
v -0.8 1.1 -1.2
v 0.7 1.1 -1.2
v -0.3 1.4 0.6
v 0.2 1.4 0.6
v -0.3 1.4 -0.5
v 0.2 1.4 -0.5
v -0.8 1.3 1.3
v 0.7 1.3 1.3
v -0.3 1.3 0.7
v 0.2 1.3 0.7
v -0.3 1.3 0.6
v 0.2 1.3 0.6
v -0.3 1.3 -0.5
v 0.2 1.3 -0.5
v -0.3 1.3 -0.6
v 0.2 1.3 -0.6
v -0.8 1.3 -1.2
v 0.7 1.3 -1.2
v -0.3 1.5 0.7
v 0.2 1.5 0.7
v -0.3 1.5 -0.6
v 0.2 1.5 -0.6

# faces
f 3/4/1 2/4/1 1/4/1
f 4/4/1 2/4/1 3/4/1
f 7/2/1 6/2/1 5/2/1
f 8/2/1 6/2/1 7/2/1
f 9/2/1 7/2/1 5/2/1
f 9/1/1 8/1/1 7/1/1
f 10/2/1 6/2/1 8/2/1
f 10/1/1 8/1/1 9/1/1
f 11/2/1 10/2/1 9/2/1
f 12/2/1 10/2/1 11/2/1
f 13/2/1 11/2/1 9/2/1
f 13/1/1 12/1/1 11/1/1
f 14/2/1 10/2/1 12/2/1
f 14/1/1 12/1/1 13/1/1
f 15/2/1 9/2/1 5/2/1
f 15/2/1 13/2/1 9/2/1
f 15/2/1 14/2/1 13/2/1
f 16/2/1 10/2/1 14/2/1
f 16/2/1 14/2/1 15/2/1
f 16/2/1 6/2/1 10/2/1
f 17/2/1 15/2/1 5/2/1
f 17/1/1 16/1/1 15/1/1
f 18/2/1 6/2/1 16/2/1
f 18/1/1 16/1/1 17/1/1
f 19/2/1 17/2/1 5/2/1
f 19/2/1 18/2/1 17/2/1
f 20/2/1 6/2/1 18/2/1
f 20/2/1 18/2/1 19/2/1
f 25/4/1 22/4/1 21/4/1
f 26/4/1 24/4/1 23/4/1
f 27/4/1 25/4/1 21/4/1
f 27/4/1 26/4/1 25/4/1
f 28/4/1 24/4/1 26/4/1
f 28/4/1 26/4/1 27/4/1
f 29/4/2 30/4/2 33/4/2
f 31/4/2 32/4/2 34/4/2
f 29/4/2 33/4/2 35/4/2
f 33/4/2 34/4/2 35/4/2
f 34/4/2 32/4/2 36/4/2
f 35/4/2 34/4/2 36/4/2
f 37/2/2 38/2/2 41/2/2
f 41/2/2 38/2/2 42/2/2
f 42/2/2 38/2/2 43/2/2
f 38/3/2 39/3/2 44/3/2
f 43/2/2 38/2/2 44/2/2
f 39/2/2 40/2/2 45/2/2
f 44/3/2 39/3/2 45/3/2
f 45/2/2 40/2/2 46/2/2
f 46/2/2 40/2/2 47/2/2
f 47/2/2 40/2/2 48/2/2
f 37/2/2 41/2/2 49/2/2
f 41/3/2 42/3/2 50/3/2
f 49/2/2 41/2/2 50/2/2
f 42/2/2 43/2/2 51/2/2
f 50/3/2 42/3/2 51/3/2
f 51/2/2 43/2/2 52/2/2
f 52/2/2 43/2/2 53/2/2
f 43/3/2 44/3/2 54/3/2
f 53/2/2 43/2/2 54/2/2
f 44/3/2 45/3/2 54/3/2
f 45/3/2 46/3/2 54/3/2
f 46/2/2 47/2/2 55/2/2
f 54/3/2 46/3/2 55/3/2
f 55/2/2 47/2/2 56/2/2
f 56/2/2 47/2/2 57/2/2
f 47/3/2 48/3/2 58/3/2
f 57/2/2 47/2/2 58/2/2
f 48/2/2 40/2/2 59/2/2
f 58/3/2 48/3/2 59/3/2
f 59/2/2 40/2/2 60/2/2
f 49/3/2 50/3/2 61/3/2
f 37/2/2 49/2/2 61/2/2
f 51/3/2 52/3/2 61/3/2
f 50/3/2 51/3/2 61/3/2
f 61/3/2 52/3/2 62/3/2
f 62/3/2 52/3/2 63/3/2
f 52/2/2 53/2/2 64/2/2
f 63/3/2 52/3/2 64/3/2
f 64/2/2 53/2/2 65/2/2
f 55/3/2 56/3/2 66/3/2
f 65/2/2 53/2/2 66/2/2
f 53/3/2 54/3/2 66/3/2
f 54/3/2 55/3/2 66/3/2
f 56/2/2 57/2/2 67/2/2
f 66/3/2 56/3/2 67/3/2
f 67/2/2 57/2/2 68/2/2
f 57/3/2 58/3/2 69/3/2
f 68/2/2 57/2/2 69/2/2
f 59/3/2 60/3/2 69/3/2
f 58/3/2 59/3/2 69/3/2
f 69/3/2 60/3/2 70/3/2
f 70/3/2 60/3/2 71/3/2
f 60/2/2 40/2/2 72/2/2
f 71/3/2 60/3/2 72/3/2
f 62/3/2 63/3/2 73/3/2
f 61/2/2 62/2/2 73/2/2
f 64/2/2 65/2/2 74/2/2
f 73/3/2 63/3/2 74/3/2
f 63/2/2 64/2/2 74/2/2
f 74/2/2 65/2/2 75/2/2
f 67/3/2 68/3/2 76/3/2
f 75/2/2 65/2/2 76/2/2
f 66/3/2 67/3/2 76/3/2
f 65/3/2 66/3/2 76/3/2
f 69/2/2 70/2/2 77/2/2
f 76/3/2 68/3/2 77/3/2
f 68/2/2 69/2/2 77/2/2
f 77/2/2 70/2/2 78/2/2
f 70/3/2 71/3/2 79/3/2
f 78/2/2 70/2/2 79/2/2
f 71/2/2 72/2/2 80/2/2
f 79/3/2 71/3/2 80/3/2
f 74/2/2 75/2/2 81/2/2
f 73/2/2 74/2/2 81/2/2
f 77/3/2 78/3/2 82/3/2
f 81/2/2 75/2/2 82/2/2
f 75/3/2 76/3/2 82/3/2
f 76/3/2 77/3/2 82/3/2
f 79/2/2 80/2/2 83/2/2
f 82/3/2 78/3/2 83/3/2
f 78/2/2 79/2/2 83/2/2
f 83/2/2 80/2/2 84/2/2
f 73/2/2 81/2/2 85/2/2
f 61/2/2 73/2/2 85/2/2
f 85/2/2 81/2/2 86/2/2
f 84/2/2 80/2/2 87/2/2
f 80/2/2 72/2/2 88/2/2
f 87/2/2 80/2/2 88/2/2
f 37/2/2 61/2/2 89/2/2
f 61/2/2 85/2/2 89/2/2
f 85/3/2 86/3/2 90/3/2
f 89/2/2 85/2/2 90/2/2
f 86/2/2 81/2/2 91/2/2
f 90/3/2 86/3/2 91/3/2
f 91/2/2 81/2/2 92/2/2
f 81/3/2 82/3/2 93/3/2
f 83/3/2 84/3/2 93/3/2
f 82/3/2 83/3/2 93/3/2
f 93/3/2 84/3/2 94/3/2
f 84/2/2 87/2/2 95/2/2
f 87/3/2 88/3/2 96/3/2
f 95/2/2 87/2/2 96/2/2
f 88/2/2 72/2/2 97/2/2
f 96/3/2 88/3/2 97/3/2
f 72/2/2 40/2/2 98/2/2
f 97/2/2 72/2/2 98/2/2
f 89/3/2 90/3/2 99/3/2
f 91/3/2 92/3/2 99/3/2
f 90/3/2 91/3/2 99/3/2
f 37/2/2 89/2/2 99/2/2
f 99/3/2 92/3/2 100/3/2
f 100/3/2 92/3/2 101/3/2
f 92/2/2 81/2/2 102/2/2
f 101/3/2 92/3/2 102/3/2
f 81/3/2 93/3/2 103/3/2
f 102/2/2 81/2/2 103/2/2
f 103/3/2 93/3/2 104/3/2
f 104/3/2 93/3/2 105/3/2
f 93/2/2 94/2/2 106/2/2
f 105/3/2 93/3/2 106/3/2
f 94/3/2 84/3/2 107/3/2
f 106/2/2 94/2/2 107/2/2
f 107/3/2 84/3/2 108/3/2
f 108/3/2 84/3/2 109/3/2
f 84/2/2 95/2/2 110/2/2
f 109/3/2 84/3/2 110/3/2
f 96/3/2 97/3/2 111/3/2
f 110/2/2 95/2/2 111/2/2
f 95/3/2 96/3/2 111/3/2
f 97/3/2 98/3/2 111/3/2
f 111/3/2 98/3/2 112/3/2
f 112/3/2 98/3/2 113/3/2
f 98/2/2 40/2/2 114/2/2
f 113/3/2 98/3/2 114/3/2
f 100/3/2 101/3/2 115/3/2
f 99/2/2 100/2/2 115/2/2
f 101/2/2 102/2/2 116/2/2
f 115/3/2 101/3/2 116/3/2
f 102/2/2 103/2/2 116/2/2
f 103/2/2 104/2/2 116/2/2
f 104/3/2 105/3/2 117/3/2
f 116/2/2 104/2/2 117/2/2
f 105/2/2 106/2/2 118/2/2
f 117/3/2 105/3/2 118/3/2
f 107/2/2 108/2/2 118/2/2
f 106/2/2 107/2/2 118/2/2
f 108/3/2 109/3/2 119/3/2
f 118/2/2 108/2/2 119/2/2
f 109/2/2 110/2/2 120/2/2
f 119/3/2 109/3/2 120/3/2
f 110/2/2 111/2/2 120/2/2
f 111/2/2 112/2/2 120/2/2
f 112/3/2 113/3/2 121/3/2
f 120/2/2 112/2/2 121/2/2
f 113/2/2 114/2/2 122/2/2
f 121/3/2 113/3/2 122/3/2
f 118/2/2 119/2/2 123/2/2
f 119/2/2 120/2/2 123/2/2
f 121/2/2 122/2/2 123/2/2
f 99/2/2 115/2/2 123/2/2
f 117/2/2 118/2/2 123/2/2
f 115/2/2 116/2/2 123/2/2
f 37/2/2 99/2/2 123/2/2
f 120/2/2 121/2/2 123/2/2
f 116/2/2 117/2/2 123/2/2
f 122/2/2 114/2/2 124/2/2
f 123/2/2 122/2/2 124/2/2
f 114/2/2 40/2/2 124/2/2
f 125/4/2 126/4/2 127/4/2
f 127/4/2 126/4/2 128/4/2
f 131/4/3 130/4/3 129/4/3
f 132/4/3 130/4/3 131/4/3
f 135/2/3 134/2/3 133/2/3
f 136/2/3 134/2/3 135/2/3
f 139/4/3 138/4/3 137/4/3
f 140/4/3 138/4/3 139/4/3
f 143/4/3 142/4/3 141/4/3
f 144/4/3 142/4/3 143/4/3
f 145/4/4 146/4/4 147/4/4
f 147/4/4 146/4/4 148/4/4
f 149/4/4 150/4/4 151/4/4
f 151/4/4 150/4/4 152/4/4
f 153/2/4 154/2/4 155/2/4
f 155/2/4 154/2/4 156/2/4
f 157/4/4 158/4/4 159/4/4
f 159/4/4 158/4/4 160/4/4
f 163/2/5 162/2/5 161/2/5
f 164/2/5 162/2/5 163/2/5
f 165/2/5 163/2/5 161/2/5
f 165/3/5 164/3/5 163/3/5
f 166/3/5 164/3/5 165/3/5
f 167/2/5 165/2/5 161/2/5
f 167/2/5 166/2/5 165/2/5
f 168/2/5 166/2/5 167/2/5
f 171/4/5 170/4/5 169/4/5
f 172/4/5 170/4/5 171/4/5
f 173/4/5 171/4/5 169/4/5
f 174/4/5 170/4/5 172/4/5
f 175/4/5 173/4/5 169/4/5
f 175/4/5 174/4/5 173/4/5
f 176/4/5 170/4/5 174/4/5
f 176/4/5 174/4/5 175/4/5
f 179/4/5 178/4/5 177/4/5
f 180/4/5 178/4/5 179/4/5
f 181/4/6 182/4/6 183/4/6
f 183/4/6 182/4/6 184/4/6
f 181/4/6 183/4/6 185/4/6
f 184/4/6 182/4/6 186/4/6
f 181/4/6 185/4/6 187/4/6
f 185/4/6 186/4/6 187/4/6
f 186/4/6 182/4/6 188/4/6
f 187/4/6 186/4/6 188/4/6
f 181/4/6 187/4/6 189/4/6
f 188/4/6 182/4/6 190/4/6
f 181/4/6 189/4/6 191/4/6
f 189/4/6 190/4/6 191/4/6
f 190/4/6 182/4/6 192/4/6
f 191/4/6 190/4/6 192/4/6
f 193/4/6 194/4/6 195/4/6
f 195/4/6 194/4/6 196/4/6
