# MagicaVoxel @ Ephtracy

# group
o 

# material
mtllib pistol.mtl
usemtl palette

# normals
vn -1 0 0
vn 1 0 0
vn 0 0 1
vn 0 0 -1
vn 0 -1 0
vn 0 1 0

# texcoords
vt 0.537109 0.5
vt 0.990234 0.5

# verts
v -0.5 0 0.2
v -0.5 0 -0.1
v -0.5 0.2 0.2
v -0.5 0.2 0.1
v -0.5 0.2 0
v -0.5 0.2 -0.1
v -0.5 0.3 0.1
v -0.5 0.3 0
v -0.5 0.5 0.1
v -0.5 0.5 0
v -0.5 0.6 0.1
v -0.5 0.6 0
v -0.4 0.2 0.2
v -0.4 0.2 0.1
v -0.4 0.2 0
v -0.4 0.2 -0.1
v -0.4 0.3 0.1
v -0.4 0.3 0
v -0.4 0.4 0.2
v -0.4 0.4 0.1
v -0.4 0.4 0
v -0.4 0.4 -0.1
v -0.4 0.5 0.1
v -0.4 0.5 0
v -0.3 0.4 0.2
v -0.3 0.4 0.1
v -0.3 0.4 0
v -0.3 0.4 -0.1
v -0.3 0.5 0.2
v -0.3 0.5 0.1
v -0.3 0.5 0
v -0.3 0.5 -0.1
v -0.2 0.5 0.1
v -0.2 0.5 0
v -0.2 0.6 0.1
v -0.2 0.6 0
v -0.3 0 0.2
v -0.3 0 -0.1
v -0.3 0.1 0.2
v -0.3 0.1 -0.1
v -0.3 0.5 0.1
v -0.3 0.5 0
v -0.3 0.6 0.1
v -0.3 0.6 0
v -0.2 0.1 0.2
v -0.2 0.1 -0.1
v -0.2 0.2 0.2
v -0.2 0.2 -0.1
v -0.1 0.2 0.2
v -0.1 0.2 -0.1
v -0.1 0.3 0.2
v -0.1 0.3 -0.1
v 0.3 0.5 0.1
v 0.3 0.5 0
v 0.3 0.6 0.1
v 0.3 0.6 0
v 0.5 0.3 0.2
v 0.5 0.3 -0.1
v 0.5 0.5 0.2
v 0.5 0.5 -0.1
v -0.5 0 0.2
v -0.5 0.2 0.2
v -0.4 0.2 0.2
v -0.4 0.4 0.2
v -0.3 0 0.2
v -0.3 0.1 0.2
v -0.3 0.3 0.2
v -0.3 0.4 0.2
v -0.3 0.5 0.2
v -0.2 0.1 0.2
v -0.2 0.2 0.2
v -0.2 0.3 0.2
v -0.1 0.2 0.2
v -0.1 0.3 0.2
v 0.5 0.3 0.2
v 0.5 0.5 0.2
v -0.5 0.2 0.1
v -0.5 0.3 0.1
v -0.5 0.5 0.1
v -0.5 0.6 0.1
v -0.4 0.2 0.1
v -0.4 0.3 0.1
v -0.4 0.4 0.1
v -0.4 0.5 0.1
v -0.3 0.4 0.1
v -0.3 0.5 0.1
v -0.3 0.6 0.1
v -0.2 0.5 0.1
v -0.2 0.6 0.1
v 0.3 0.5 0.1
v 0.3 0.6 0.1
v -0.5 0.2 0
v -0.5 0.3 0
v -0.5 0.5 0
v -0.5 0.6 0
v -0.4 0.2 0
v -0.4 0.3 0
v -0.4 0.4 0
v -0.4 0.5 0
v -0.3 0.4 0
v -0.3 0.5 0
v -0.3 0.6 0
v -0.2 0.5 0
v -0.2 0.6 0
v 0.3 0.5 0
v 0.3 0.6 0
v -0.5 0 -0.1
v -0.5 0.2 -0.1
v -0.4 0.2 -0.1
v -0.4 0.4 -0.1
v -0.3 0 -0.1
v -0.3 0.1 -0.1
v -0.3 0.3 -0.1
v -0.3 0.4 -0.1
v -0.3 0.5 -0.1
v -0.2 0.1 -0.1
v -0.2 0.2 -0.1
v -0.2 0.3 -0.1
v -0.1 0.2 -0.1
v -0.1 0.3 -0.1
v 0.5 0.3 -0.1
v 0.5 0.5 -0.1
v -0.5 0 0.2
v -0.3 0 0.2
v -0.5 0 -0.1
v -0.3 0 -0.1
v -0.3 0.1 0.2
v -0.2 0.1 0.2
v -0.3 0.1 -0.1
v -0.2 0.1 -0.1
v -0.2 0.2 0.2
v -0.1 0.2 0.2
v -0.2 0.2 -0.1
v -0.1 0.2 -0.1
v -0.1 0.3 0.2
v 0.5 0.3 0.2
v -0.1 0.3 -0.1
v 0.5 0.3 -0.1
v -0.5 0.5 0.1
v -0.4 0.5 0.1
v -0.5 0.5 0
v -0.4 0.5 0
v -0.5 0.2 0.2
v -0.4 0.2 0.2
v -0.5 0.2 0.1
v -0.4 0.2 0.1
v -0.5 0.2 0
v -0.4 0.2 0
v -0.5 0.2 -0.1
v -0.4 0.2 -0.1
v -0.5 0.3 0.1
v -0.4 0.3 0.1
v -0.5 0.3 0
v -0.4 0.3 0
v -0.4 0.4 0.2
v -0.3 0.4 0.2
v -0.4 0.4 0.1
v -0.3 0.4 0.1
v -0.4 0.4 0
v -0.3 0.4 0
v -0.4 0.4 -0.1
v -0.3 0.4 -0.1
v -0.3 0.5 0.2
v 0.5 0.5 0.2
v -0.3 0.5 0.1
v -0.2 0.5 0.1
v 0.3 0.5 0.1
v -0.3 0.5 0
v -0.2 0.5 0
v 0.3 0.5 0
v -0.3 0.5 -0.1
v 0.5 0.5 -0.1
v -0.5 0.6 0.1
v -0.3 0.6 0.1
v -0.2 0.6 0.1
v 0.3 0.6 0.1
v -0.5 0.6 0
v -0.3 0.6 0
v -0.2 0.6 0
v 0.3 0.6 0

# faces
f 3/1/1 2/1/1 1/1/1
f 4/1/1 2/1/1 3/1/1
f 5/1/1 2/1/1 4/1/1
f 6/1/1 2/1/1 5/1/1
f 7/1/1 5/1/1 4/1/1
f 8/1/1 5/1/1 7/1/1
f 11/2/1 10/2/1 9/2/1
f 12/2/1 10/2/1 11/2/1
f 17/1/1 14/1/1 13/1/1
f 18/1/1 16/1/1 15/1/1
f 19/1/1 17/1/1 13/1/1
f 20/2/1 18/2/1 17/2/1
f 20/1/1 17/1/1 19/1/1
f 21/1/1 16/1/1 18/1/1
f 21/2/1 18/2/1 20/2/1
f 22/1/1 16/1/1 21/1/1
f 23/2/1 21/2/1 20/2/1
f 24/2/1 21/2/1 23/2/1
f 29/2/1 26/2/1 25/2/1
f 30/2/1 26/2/1 29/2/1
f 31/2/1 28/2/1 27/2/1
f 32/2/1 28/2/1 31/2/1
f 35/2/1 34/2/1 33/2/1
f 36/2/1 34/2/1 35/2/1
f 37/1/2 38/1/2 39/1/2
f 39/1/2 38/1/2 40/1/2
f 41/2/2 42/2/2 43/2/2
f 43/2/2 42/2/2 44/2/2
f 45/1/2 46/1/2 47/1/2
f 47/1/2 46/1/2 48/1/2
f 49/2/2 50/2/2 51/2/2
f 51/2/2 50/2/2 52/2/2
f 53/2/2 54/2/2 55/2/2
f 55/2/2 54/2/2 56/2/2
f 57/2/2 58/2/2 59/2/2
f 59/2/2 58/2/2 60/2/2
f 63/1/3 62/1/3 61/1/3
f 65/1/3 63/1/3 61/1/3
f 65/1/3 64/1/3 63/1/3
f 66/1/3 64/1/3 65/1/3
f 67/1/3 64/1/3 66/1/3
f 68/1/3 64/1/3 67/1/3
f 70/1/3 67/1/3 66/1/3
f 71/1/3 67/1/3 70/1/3
f 72/2/3 69/2/3 68/2/3
f 72/1/3 67/1/3 71/1/3
f 72/2/3 68/2/3 67/2/3
f 73/2/3 72/2/3 71/2/3
f 74/2/3 69/2/3 72/2/3
f 74/2/3 72/2/3 73/2/3
f 75/2/3 69/2/3 74/2/3
f 76/2/3 69/2/3 75/2/3
f 81/1/3 78/1/3 77/1/3
f 82/1/3 78/1/3 81/1/3
f 84/2/3 80/2/3 79/2/3
f 85/2/3 84/2/3 83/2/3
f 86/2/3 80/2/3 84/2/3
f 86/2/3 84/2/3 85/2/3
f 87/2/3 80/2/3 86/2/3
f 90/2/3 89/2/3 88/2/3
f 91/2/3 89/2/3 90/2/3
f 92/1/4 93/1/4 96/1/4
f 96/1/4 93/1/4 97/1/4
f 94/2/4 95/2/4 99/2/4
f 98/2/4 99/2/4 100/2/4
f 99/2/4 95/2/4 101/2/4
f 100/2/4 99/2/4 101/2/4
f 101/2/4 95/2/4 102/2/4
f 103/2/4 104/2/4 105/2/4
f 105/2/4 104/2/4 106/2/4
f 107/1/4 108/1/4 109/1/4
f 107/1/4 109/1/4 111/1/4
f 109/1/4 110/1/4 111/1/4
f 111/1/4 110/1/4 112/1/4
f 112/1/4 110/1/4 113/1/4
f 113/1/4 110/1/4 114/1/4
f 112/1/4 113/1/4 116/1/4
f 116/1/4 113/1/4 117/1/4
f 114/2/4 115/2/4 118/2/4
f 117/1/4 113/1/4 118/1/4
f 113/2/4 114/2/4 118/2/4
f 117/2/4 118/2/4 119/2/4
f 118/2/4 115/2/4 120/2/4
f 119/2/4 118/2/4 120/2/4
f 120/2/4 115/2/4 121/2/4
f 121/2/4 115/2/4 122/2/4
f 125/1/5 124/1/5 123/1/5
f 126/1/5 124/1/5 125/1/5
f 129/1/5 128/1/5 127/1/5
f 130/1/5 128/1/5 129/1/5
f 133/2/5 132/2/5 131/2/5
f 134/2/5 132/2/5 133/2/5
f 137/2/5 136/2/5 135/2/5
f 138/2/5 136/2/5 137/2/5
f 141/2/5 140/2/5 139/2/5
f 142/2/5 140/2/5 141/2/5
f 143/1/6 144/1/6 145/1/6
f 145/1/6 144/1/6 146/1/6
f 147/1/6 148/1/6 149/1/6
f 149/1/6 148/1/6 150/1/6
f 151/1/6 152/1/6 153/1/6
f 153/1/6 152/1/6 154/1/6
f 155/1/6 156/1/6 157/1/6
f 157/1/6 156/1/6 158/1/6
f 159/1/6 160/1/6 161/1/6
f 161/1/6 160/1/6 162/1/6
f 163/2/6 164/2/6 165/2/6
f 165/2/6 164/2/6 166/2/6
f 166/2/6 164/2/6 167/2/6
f 165/2/6 166/2/6 168/2/6
f 168/2/6 166/2/6 169/2/6
f 167/2/6 164/2/6 170/2/6
f 168/2/6 169/2/6 171/2/6
f 169/2/6 170/2/6 171/2/6
f 170/2/6 164/2/6 172/2/6
f 171/2/6 170/2/6 172/2/6
f 173/2/6 174/2/6 177/2/6
f 177/2/6 174/2/6 178/2/6
f 175/2/6 176/2/6 179/2/6
f 179/2/6 176/2/6 180/2/6
