# MagicaVoxel @ Ephtracy

# group
o 

# material
mtllib bullet.mtl
usemtl palette

# normals
vn -1 0 0
vn 1 0 0
vn 0 0 1
vn 0 0 -1
vn 0 -1 0
vn 0 1 0

# texcoords
vt 0.0449219 0.5
vt 0.990234 0.5

# verts
v -0.5 0 0.2
v -0.5 0 -0.1
v -0.5 0.1 0.3
v -0.5 0.1 0.2
v -0.5 0.1 -0.1
v -0.5 0.1 -0.2
v -0.5 0.4 0.3
v -0.5 0.4 0.2
v -0.5 0.4 -0.1
v -0.5 0.4 -0.2
v -0.5 0.5 0.2
v -0.5 0.5 -0.1
v 0.1 0 0.2
v 0.1 0 0.1
v 0.1 0.1 0.3
v 0.1 0.1 0.2
v 0.1 0.1 0.1
v 0.1 0.1 -0.1
v 0.1 0.1 -0.2
v 0.1 0.2 0.3
v 0.1 0.2 0.2
v 0.1 0.2 -0.1
v 0.1 0.2 -0.2
v 0.1 0.3 0.3
v 0.1 0.3 0.2
v 0.1 0.3 -0.1
v 0.1 0.3 -0.2
v 0.1 0.4 0.3
v 0.1 0.4 0.2
v 0.1 0.4 0.1
v 0.1 0.4 0
v 0.1 0.4 -0.1
v 0.1 0.4 -0.2
v 0.1 0.5 0.2
v 0.1 0.5 0.1
v 0.1 0.5 0
v 0.1 0.5 -0.1
v 0.2 0 0
v 0.2 0 -0.1
v 0.2 0.1 0
v 0.2 0.1 -0.1
v 0.3 0 0.1
v 0.3 0 0
v 0.3 0.1 0.2
v 0.3 0.1 0.1
v 0.3 0.1 0
v 0.3 0.1 -0.1
v 0.3 0.2 0.3
v 0.3 0.2 0.2
v 0.3 0.2 0.1
v 0.3 0.2 0
v 0.3 0.2 -0.1
v 0.3 0.2 -0.2
v 0.3 0.3 0.3
v 0.3 0.3 0.2
v 0.3 0.3 0.1
v 0.3 0.3 0
v 0.3 0.3 -0.1
v 0.3 0.3 -0.2
v 0.3 0.4 0.2
v 0.3 0.4 0.1
v 0.3 0.4 0
v 0.3 0.4 -0.1
v 0.3 0.5 0.1
v 0.3 0.5 0
v 0.4 0.1 0.1
v 0.4 0.1 0
v 0.4 0.2 0.2
v 0.4 0.2 0.1
v 0.4 0.2 0
v 0.4 0.2 -0.1
v 0.4 0.3 0.2
v 0.4 0.3 0.1
v 0.4 0.3 0
v 0.4 0.3 -0.1
v 0.4 0.4 0.1
v 0.4 0.4 0
v -0.5 0.1 0.3
v -0.5 0.4 0.3
v -0.1 0.1 0.3
v -0.1 0.4 0.3
v 0.1 0.1 0.3
v 0.1 0.2 0.3
v 0.1 0.3 0.3
v 0.1 0.4 0.3
v 0.3 0.2 0.3
v 0.3 0.3 0.3
v -0.5 0 0.2
v -0.5 0.1 0.2
v -0.5 0.4 0.2
v -0.5 0.5 0.2
v -0.1 0 0.2
v -0.1 0.1 0.2
v -0.1 0.4 0.2
v -0.1 0.5 0.2
v 0.1 0 0.2
v 0.1 0.1 0.2
v 0.1 0.2 0.2
v 0.1 0.3 0.2
v 0.1 0.4 0.2
v 0.1 0.5 0.2
v 0.3 0.1 0.2
v 0.3 0.2 0.2
v 0.3 0.3 0.2
v 0.3 0.4 0.2
v 0.4 0.2 0.2
v 0.4 0.3 0.2
v 0.1 0 0.1
v 0.1 0.1 0.1
v 0.1 0.4 0.1
v 0.1 0.5 0.1
v 0.3 0 0.1
v 0.3 0.1 0.1
v 0.3 0.2 0.1
v 0.3 0.3 0.1
v 0.3 0.4 0.1
v 0.3 0.5 0.1
v 0.4 0.1 0.1
v 0.4 0.2 0.1
v 0.4 0.3 0.1
v 0.4 0.4 0.1
v 0.1 0.4 0
v 0.1 0.5 0
v 0.2 0 0
v 0.2 0.1 0
v 0.3 0 0
v 0.3 0.1 0
v 0.3 0.2 0
v 0.3 0.3 0
v 0.3 0.4 0
v 0.3 0.5 0
v 0.4 0.1 0
v 0.4 0.2 0
v 0.4 0.3 0
v 0.4 0.4 0
v -0.5 0 -0.1
v -0.5 0.1 -0.1
v -0.5 0.4 -0.1
v -0.5 0.5 -0.1
v -0.1 0 -0.1
v -0.1 0.1 -0.1
v -0.1 0.4 -0.1
v -0.1 0.5 -0.1
v 0.1 0.1 -0.1
v 0.1 0.2 -0.1
v 0.1 0.3 -0.1
v 0.1 0.4 -0.1
v 0.1 0.5 -0.1
v 0.2 0 -0.1
v 0.2 0.1 -0.1
v 0.3 0.1 -0.1
v 0.3 0.2 -0.1
v 0.3 0.3 -0.1
v 0.3 0.4 -0.1
v 0.4 0.2 -0.1
v 0.4 0.3 -0.1
v -0.5 0.1 -0.2
v -0.5 0.4 -0.2
v -0.1 0.1 -0.2
v -0.1 0.4 -0.2
v 0.1 0.1 -0.2
v 0.1 0.2 -0.2
v 0.1 0.3 -0.2
v 0.1 0.4 -0.2
v 0.3 0.2 -0.2
v 0.3 0.3 -0.2
v -0.5 0 0.2
v -0.1 0 0.2
v 0.1 0 0.2
v 0.1 0 0.1
v 0.3 0 0.1
v 0.2 0 0
v 0.3 0 0
v -0.5 0 -0.1
v -0.1 0 -0.1
v 0.2 0 -0.1
v -0.5 0.1 0.3
v -0.1 0.1 0.3
v 0.1 0.1 0.3
v -0.5 0.1 0.2
v -0.1 0.1 0.2
v 0.1 0.1 0.2
v 0.3 0.1 0.2
v 0.1 0.1 0.1
v 0.3 0.1 0.1
v 0.4 0.1 0.1
v 0.2 0.1 0
v 0.3 0.1 0
v 0.4 0.1 0
v -0.5 0.1 -0.1
v -0.1 0.1 -0.1
v 0.1 0.1 -0.1
v 0.2 0.1 -0.1
v 0.3 0.1 -0.1
v -0.5 0.1 -0.2
v -0.1 0.1 -0.2
v 0.1 0.1 -0.2
v 0.1 0.2 0.3
v 0.3 0.2 0.3
v 0.1 0.2 0.2
v 0.3 0.2 0.2
v 0.4 0.2 0.2
v 0.3 0.2 0.1
v 0.4 0.2 0.1
v 0.3 0.2 0
v 0.4 0.2 0
v 0.1 0.2 -0.1
v 0.3 0.2 -0.1
v 0.4 0.2 -0.1
v 0.1 0.2 -0.2
v 0.3 0.2 -0.2
v 0.1 0.3 0.3
v 0.3 0.3 0.3
v 0.1 0.3 0.2
v 0.3 0.3 0.2
v 0.4 0.3 0.2
v 0.3 0.3 0.1
v 0.4 0.3 0.1
v 0.3 0.3 0
v 0.4 0.3 0
v 0.1 0.3 -0.1
v 0.3 0.3 -0.1
v 0.4 0.3 -0.1
v 0.1 0.3 -0.2
v 0.3 0.3 -0.2
v -0.5 0.4 0.3
v -0.1 0.4 0.3
v 0.1 0.4 0.3
v -0.5 0.4 0.2
v -0.1 0.4 0.2
v 0.1 0.4 0.2
v 0.3 0.4 0.2
v 0.1 0.4 0.1
v 0.3 0.4 0.1
v 0.4 0.4 0.1
v 0.1 0.4 0
v 0.3 0.4 0
v 0.4 0.4 0
v -0.5 0.4 -0.1
v -0.1 0.4 -0.1
v 0.1 0.4 -0.1
v 0.3 0.4 -0.1
v -0.5 0.4 -0.2
v -0.1 0.4 -0.2
v 0.1 0.4 -0.2
v -0.5 0.5 0.2
v -0.1 0.5 0.2
v 0.1 0.5 0.2
v 0.1 0.5 0.1
v 0.3 0.5 0.1
v 0.1 0.5 0
v 0.3 0.5 0
v -0.5 0.5 -0.1
v -0.1 0.5 -0.1
v 0.1 0.5 -0.1

# faces
f 4/1/1 2/1/1 1/1/1
f 5/1/1 2/1/1 4/1/1
f 7/1/1 4/1/1 3/1/1
f 7/1/1 6/1/1 5/1/1
f 7/1/1 5/1/1 4/1/1
f 8/1/1 6/1/1 7/1/1
f 9/1/1 6/1/1 8/1/1
f 10/1/1 6/1/1 9/1/1
f 11/1/1 9/1/1 8/1/1
f 12/1/1 9/1/1 11/1/1
f 13/2/2 14/2/2 16/2/2
f 16/2/2 14/2/2 17/2/2
f 15/2/2 16/2/2 20/2/2
f 20/2/2 16/2/2 21/2/2
f 18/2/2 19/2/2 22/2/2
f 22/2/2 19/2/2 23/2/2
f 24/2/2 25/2/2 28/2/2
f 28/2/2 25/2/2 29/2/2
f 26/2/2 27/2/2 32/2/2
f 32/2/2 27/2/2 33/2/2
f 29/2/2 30/2/2 34/2/2
f 34/2/2 30/2/2 35/2/2
f 31/2/2 32/2/2 36/2/2
f 36/2/2 32/2/2 37/2/2
f 38/2/2 39/2/2 40/2/2
f 40/2/2 39/2/2 41/2/2
f 42/2/2 43/2/2 45/2/2
f 45/2/2 43/2/2 46/2/2
f 44/2/2 45/2/2 49/2/2
f 49/2/2 45/2/2 50/2/2
f 46/2/2 47/2/2 51/2/2
f 51/2/2 47/2/2 52/2/2
f 48/2/2 49/2/2 54/2/2
f 54/2/2 49/2/2 55/2/2
f 52/2/2 53/2/2 58/2/2
f 58/2/2 53/2/2 59/2/2
f 55/2/2 56/2/2 60/2/2
f 60/2/2 56/2/2 61/2/2
f 57/2/2 58/2/2 62/2/2
f 62/2/2 58/2/2 63/2/2
f 61/2/2 62/2/2 64/2/2
f 64/2/2 62/2/2 65/2/2
f 66/2/2 67/2/2 69/2/2
f 69/2/2 67/2/2 70/2/2
f 68/2/2 69/2/2 72/2/2
f 70/2/2 71/2/2 72/2/2
f 69/2/2 70/2/2 72/2/2
f 72/2/2 71/2/2 73/2/2
f 73/2/2 71/2/2 74/2/2
f 74/2/2 71/2/2 75/2/2
f 73/2/2 74/2/2 76/2/2
f 76/2/2 74/2/2 77/2/2
f 80/1/3 79/1/3 78/1/3
f 81/1/3 79/1/3 80/1/3
f 82/2/3 81/2/3 80/2/3
f 83/2/3 81/2/3 82/2/3
f 84/2/3 81/2/3 83/2/3
f 85/2/3 81/2/3 84/2/3
f 86/2/3 84/2/3 83/2/3
f 87/2/3 84/2/3 86/2/3
f 92/1/3 89/1/3 88/1/3
f 93/1/3 89/1/3 92/1/3
f 94/1/3 91/1/3 90/1/3
f 95/1/3 91/1/3 94/1/3
f 96/2/3 93/2/3 92/2/3
f 97/2/3 93/2/3 96/2/3
f 100/2/3 95/2/3 94/2/3
f 101/2/3 95/2/3 100/2/3
f 102/2/3 98/2/3 97/2/3
f 103/2/3 98/2/3 102/2/3
f 104/2/3 100/2/3 99/2/3
f 105/2/3 100/2/3 104/2/3
f 106/2/3 104/2/3 103/2/3
f 107/2/3 104/2/3 106/2/3
f 112/2/3 109/2/3 108/2/3
f 113/2/3 109/2/3 112/2/3
f 116/2/3 111/2/3 110/2/3
f 117/2/3 111/2/3 116/2/3
f 118/2/3 114/2/3 113/2/3
f 119/2/3 114/2/3 118/2/3
f 120/2/3 116/2/3 115/2/3
f 121/2/3 116/2/3 120/2/3
f 124/2/4 125/2/4 126/2/4
f 126/2/4 125/2/4 127/2/4
f 122/2/4 123/2/4 130/2/4
f 130/2/4 123/2/4 131/2/4
f 127/2/4 128/2/4 132/2/4
f 132/2/4 128/2/4 133/2/4
f 129/2/4 130/2/4 134/2/4
f 134/2/4 130/2/4 135/2/4
f 136/1/4 137/1/4 140/1/4
f 140/1/4 137/1/4 141/1/4
f 138/1/4 139/1/4 142/1/4
f 142/1/4 139/1/4 143/1/4
f 140/2/4 141/2/4 144/2/4
f 142/2/4 143/2/4 147/2/4
f 147/2/4 143/2/4 148/2/4
f 144/2/4 145/2/4 149/2/4
f 140/2/4 144/2/4 149/2/4
f 149/2/4 145/2/4 150/2/4
f 150/2/4 145/2/4 151/2/4
f 151/2/4 145/2/4 152/2/4
f 146/2/4 147/2/4 153/2/4
f 153/2/4 147/2/4 154/2/4
f 152/2/4 153/2/4 155/2/4
f 155/2/4 153/2/4 156/2/4
f 157/1/4 158/1/4 159/1/4
f 159/1/4 158/1/4 160/1/4
f 159/2/4 160/2/4 161/2/4
f 161/2/4 160/2/4 162/2/4
f 162/2/4 160/2/4 163/2/4
f 163/2/4 160/2/4 164/2/4
f 162/2/4 163/2/4 165/2/4
f 165/2/4 163/2/4 166/2/4
f 170/2/5 169/2/5 168/2/5
f 172/2/5 171/2/5 170/2/5
f 173/2/5 171/2/5 172/2/5
f 174/1/5 168/1/5 167/1/5
f 175/2/5 170/2/5 168/2/5
f 175/1/5 168/1/5 174/1/5
f 175/2/5 172/2/5 170/2/5
f 176/2/5 172/2/5 175/2/5
f 180/1/5 178/1/5 177/1/5
f 181/2/5 179/2/5 178/2/5
f 181/1/5 178/1/5 180/1/5
f 182/2/5 179/2/5 181/2/5
f 184/2/5 183/2/5 182/2/5
f 185/2/5 183/2/5 184/2/5
f 188/2/5 186/2/5 185/2/5
f 189/2/5 186/2/5 188/2/5
f 193/2/5 188/2/5 187/2/5
f 194/2/5 188/2/5 193/2/5
f 195/1/5 191/1/5 190/1/5
f 196/2/5 192/2/5 191/2/5
f 196/1/5 191/1/5 195/1/5
f 197/2/5 192/2/5 196/2/5
f 200/2/5 199/2/5 198/2/5
f 201/2/5 199/2/5 200/2/5
f 203/2/5 202/2/5 201/2/5
f 204/2/5 202/2/5 203/2/5
f 208/2/5 206/2/5 205/2/5
f 209/2/5 206/2/5 208/2/5
f 210/2/5 208/2/5 207/2/5
f 211/2/5 208/2/5 210/2/5
f 212/2/6 213/2/6 214/2/6
f 214/2/6 213/2/6 215/2/6
f 215/2/6 216/2/6 217/2/6
f 217/2/6 216/2/6 218/2/6
f 219/2/6 220/2/6 222/2/6
f 222/2/6 220/2/6 223/2/6
f 221/2/6 222/2/6 224/2/6
f 224/2/6 222/2/6 225/2/6
f 226/1/6 227/1/6 229/1/6
f 227/2/6 228/2/6 230/2/6
f 229/1/6 227/1/6 230/1/6
f 230/2/6 228/2/6 231/2/6
f 231/2/6 232/2/6 233/2/6
f 233/2/6 232/2/6 234/2/6
f 234/2/6 235/2/6 237/2/6
f 237/2/6 235/2/6 238/2/6
f 236/2/6 237/2/6 241/2/6
f 241/2/6 237/2/6 242/2/6
f 239/1/6 240/1/6 243/1/6
f 240/2/6 241/2/6 244/2/6
f 243/1/6 240/1/6 244/1/6
f 244/2/6 241/2/6 245/2/6
f 247/2/6 248/2/6 249/2/6
f 247/2/6 249/2/6 251/2/6
f 249/2/6 250/2/6 251/2/6
f 251/2/6 250/2/6 252/2/6
f 246/1/6 247/1/6 253/1/6
f 247/2/6 251/2/6 254/2/6
f 253/1/6 247/1/6 254/1/6
f 254/2/6 251/2/6 255/2/6
