# MagicaVoxel @ Ephtracy

# group
o 

# material
mtllib sniper.mtl
usemtl palette

# normals
vn -1 0 0
vn 1 0 0
vn 0 0 1
vn 0 0 -1
vn 0 -1 0
vn 0 1 0

# texcoords
vt 0.537109 0.5
vt 0.986328 0.5

# verts
v -1.7 0 0.2
v -1.7 0 -0.1
v -1.7 0.3 0.2
v -1.7 0.3 -0.1
v -1.6 0.3 0.2
v -1.6 0.3 -0.1
v -1.6 0.4 0.2
v -1.6 0.4 -0.1
v -1.4 0.4 0.2
v -1.4 0.4 -0.1
v -1.4 0.5 0.2
v -1.4 0.5 -0.1
v -1.2 0.5 0.2
v -1.2 0.5 -0.1
v -1.2 0.6 0.2
v -1.2 0.6 -0.1
v -0.8 0.6 0.2
v -0.8 0.6 0.1
v -0.8 0.6 0
v -0.8 0.6 -0.1
v -0.8 0.7 0.2
v -0.8 0.7 0.1
v -0.8 0.7 0
v -0.8 0.7 -0.1
v -1.5 0 0.2
v -1.5 0 -0.1
v -1.5 0.1 0.2
v -1.5 0.1 -0.1
v -1.3 0.1 0.2
v -1.3 0.1 -0.1
v -1.3 0.2 0.2
v -1.3 0.2 -0.1
v -1.2 0.4 0.1
v -1.2 0.4 0
v -1.2 0.5 0.1
v -1.2 0.5 0
v -1.1 0.2 0.2
v -1.1 0.2 0.1
v -1.1 0.2 0
v -1.1 0.2 -0.1
v -1.1 0.3 0.2
v -1.1 0.3 0.1
v -1.1 0.3 0
v -1.1 0.3 -0.1
v -0.7 0.6 0.2
v -0.7 0.6 0.1
v -0.7 0.6 0
v -0.7 0.6 -0.1
v -0.7 0.7 0.2
v -0.7 0.7 0.1
v -0.7 0.7 0
v -0.7 0.7 -0.1
v -0.2 0.2 0.1
v -0.2 0.2 0
v -0.2 0.3 0.2
v -0.2 0.3 0.1
v -0.2 0.3 0
v -0.2 0.3 -0.1
v -0.2 0.4 0.2
v -0.2 0.4 0.1
v -0.2 0.4 0
v -0.2 0.4 -0.1
v -0.2 0.5 0.2
v -0.2 0.5 0.1
v -0.2 0.5 0
v -0.2 0.5 -0.1
v -0.2 0.6 0.2
v -0.2 0.6 0.1
v -0.2 0.6 0
v -0.2 0.6 -0.1
v 1.6 0.3 0.1
v 1.6 0.3 0
v 1.6 0.4 0.2
v 1.6 0.4 0.1
v 1.6 0.4 0
v 1.6 0.4 -0.1
v 1.6 0.5 0.2
v 1.6 0.5 0.1
v 1.6 0.5 0
v 1.6 0.5 -0.1
v 1.6 0.6 0.1
v 1.6 0.6 0
v -1.7 0 0.2
v -1.7 0.3 0.2
v -1.6 0.3 0.2
v -1.6 0.4 0.2
v -1.5 0 0.2
v -1.5 0.1 0.2
v -1.4 0.4 0.2
v -1.4 0.5 0.2
v -1.3 0.1 0.2
v -1.3 0.2 0.2
v -1.2 0.5 0.2
v -1.2 0.6 0.2
v -1.1 0.2 0.2
v -1.1 0.3 0.2
v -0.8 0.6 0.2
v -0.8 0.7 0.2
v -0.7 0.6 0.2
v -0.7 0.7 0.2
v -0.2 0.3 0.2
v -0.2 0.4 0.2
v -0.2 0.5 0.2
v -0.2 0.6 0.2
v 1.6 0.4 0.2
v 1.6 0.5 0.2
v -1.1 0.2 0.1
v -1.1 0.3 0.1
v -0.2 0.2 0.1
v -0.2 0.3 0.1
v -0.2 0.4 0.1
v -0.2 0.5 0.1
v -0.2 0.6 0.1
v 1.6 0.3 0.1
v 1.6 0.4 0.1
v 1.6 0.5 0.1
v 1.6 0.6 0.1
v -1.2 0.4 0
v -1.2 0.5 0
v -0.8 0.6 0
v -0.8 0.7 0
v -0.7 0.6 0
v -0.7 0.7 0
v -0.2 0.4 0
v -0.2 0.5 0
v 1.6 0.4 0
v 1.6 0.5 0
v -1.2 0.4 0.1
v -1.2 0.5 0.1
v -0.8 0.6 0.1
v -0.8 0.7 0.1
v -0.7 0.6 0.1
v -0.7 0.7 0.1
v -0.2 0.4 0.1
v -0.2 0.5 0.1
v 1.6 0.4 0.1
v 1.6 0.5 0.1
v -1.1 0.2 0
v -1.1 0.3 0
v -0.2 0.2 0
v -0.2 0.3 0
v -0.2 0.4 0
v -0.2 0.5 0
v -0.2 0.6 0
v 1.6 0.3 0
v 1.6 0.4 0
v 1.6 0.5 0
v 1.6 0.6 0
v -1.7 0 -0.1
v -1.7 0.3 -0.1
v -1.6 0.3 -0.1
v -1.6 0.4 -0.1
v -1.5 0 -0.1
v -1.5 0.1 -0.1
v -1.4 0.4 -0.1
v -1.4 0.5 -0.1
v -1.3 0.1 -0.1
v -1.3 0.2 -0.1
v -1.2 0.5 -0.1
v -1.2 0.6 -0.1
v -1.1 0.2 -0.1
v -1.1 0.3 -0.1
v -0.8 0.6 -0.1
v -0.8 0.7 -0.1
v -0.7 0.6 -0.1
v -0.7 0.7 -0.1
v -0.2 0.3 -0.1
v -0.2 0.4 -0.1
v -0.2 0.5 -0.1
v -0.2 0.6 -0.1
v 1.6 0.4 -0.1
v 1.6 0.5 -0.1
v -1.7 0 0.2
v -1.5 0 0.2
v -1.7 0 -0.1
v -1.5 0 -0.1
v -1.5 0.1 0.2
v -1.3 0.1 0.2
v -1.5 0.1 -0.1
v -1.3 0.1 -0.1
v -1.3 0.2 0.2
v -1.1 0.2 0.2
v -1.1 0.2 0.1
v -0.2 0.2 0.1
v -1.1 0.2 0
v -0.2 0.2 0
v -1.3 0.2 -0.1
v -1.1 0.2 -0.1
v -1.1 0.3 0.2
v -0.2 0.3 0.2
v -1.1 0.3 0.1
v -0.2 0.3 0.1
v 1.6 0.3 0.1
v -1.1 0.3 0
v -0.2 0.3 0
v 1.6 0.3 0
v -1.1 0.3 -0.1
v -0.2 0.3 -0.1
v -0.2 0.4 0.2
v 1.6 0.4 0.2
v -0.2 0.4 0.1
v 1.6 0.4 0.1
v -0.2 0.4 0
v 1.6 0.4 0
v -0.2 0.4 -0.1
v 1.6 0.4 -0.1
v -1.2 0.5 0.1
v -0.2 0.5 0.1
v 1.6 0.5 0.1
v -1.2 0.5 0
v -0.2 0.5 0
v 1.6 0.5 0
v -1.7 0.3 0.2
v -1.6 0.3 0.2
v -1.7 0.3 -0.1
v -1.6 0.3 -0.1
v -1.6 0.4 0.2
v -1.4 0.4 0.2
v -1.2 0.4 0.1
v -0.2 0.4 0.1
v 1.6 0.4 0.1
v -1.2 0.4 0
v -0.2 0.4 0
v 1.6 0.4 0
v -1.6 0.4 -0.1
v -1.4 0.4 -0.1
v -1.4 0.5 0.2
v -1.2 0.5 0.2
v -0.2 0.5 0.2
v 1.6 0.5 0.2
v -0.2 0.5 0.1
v 1.6 0.5 0.1
v -0.2 0.5 0
v 1.6 0.5 0
v -1.4 0.5 -0.1
v -1.2 0.5 -0.1
v -0.2 0.5 -0.1
v 1.6 0.5 -0.1
v -1.2 0.6 0.2
v -0.8 0.6 0.2
v -0.7 0.6 0.2
v -0.2 0.6 0.2
v -0.8 0.6 0.1
v -0.7 0.6 0.1
v -0.2 0.6 0.1
v 1.6 0.6 0.1
v -0.8 0.6 0
v -0.7 0.6 0
v -0.2 0.6 0
v 1.6 0.6 0
v -1.2 0.6 -0.1
v -0.8 0.6 -0.1
v -0.7 0.6 -0.1
v -0.2 0.6 -0.1
v -0.8 0.7 0.2
v -0.7 0.7 0.2
v -0.8 0.7 0.1
v -0.7 0.7 0.1
v -0.8 0.7 0
v -0.7 0.7 0
v -0.8 0.7 -0.1
v -0.7 0.7 -0.1

# faces
f 3/1/1 2/1/1 1/1/1
f 4/1/1 2/1/1 3/1/1
f 7/1/1 6/1/1 5/1/1
f 8/1/1 6/1/1 7/1/1
f 11/1/1 10/1/1 9/1/1
f 12/1/1 10/1/1 11/1/1
f 15/1/1 14/1/1 13/1/1
f 16/1/1 14/1/1 15/1/1
f 21/2/1 18/2/1 17/2/1
f 22/2/1 18/2/1 21/2/1
f 23/2/1 20/2/1 19/2/1
f 24/2/1 20/2/1 23/2/1
f 25/1/2 26/1/2 27/1/2
f 27/1/2 26/1/2 28/1/2
f 29/1/2 30/1/2 31/1/2
f 31/1/2 30/1/2 32/1/2
f 33/1/2 34/1/2 35/1/2
f 35/1/2 34/1/2 36/1/2
f 37/1/2 38/1/2 41/1/2
f 41/1/2 38/1/2 42/1/2
f 39/1/2 40/1/2 43/1/2
f 43/1/2 40/1/2 44/1/2
f 45/2/2 46/2/2 49/2/2
f 49/2/2 46/2/2 50/2/2
f 47/2/2 48/2/2 51/2/2
f 51/2/2 48/2/2 52/2/2
f 53/1/2 54/1/2 56/1/2
f 56/1/2 54/1/2 57/1/2
f 55/1/2 56/1/2 59/1/2
f 59/1/2 56/1/2 60/1/2
f 57/1/2 58/1/2 61/1/2
f 61/1/2 58/1/2 62/1/2
f 63/1/2 64/1/2 67/1/2
f 67/1/2 64/1/2 68/1/2
f 65/1/2 66/1/2 69/1/2
f 69/1/2 66/1/2 70/1/2
f 71/2/2 72/2/2 74/2/2
f 74/2/2 72/2/2 75/2/2
f 73/2/2 74/2/2 77/2/2
f 77/2/2 74/2/2 78/2/2
f 75/2/2 76/2/2 79/2/2
f 79/2/2 76/2/2 80/2/2
f 78/2/2 79/2/2 81/2/2
f 81/2/2 79/2/2 82/2/2
f 85/1/3 84/1/3 83/1/3
f 87/1/3 85/1/3 83/1/3
f 87/1/3 86/1/3 85/1/3
f 88/1/3 86/1/3 87/1/3
f 89/1/3 86/1/3 88/1/3
f 91/1/3 89/1/3 88/1/3
f 91/1/3 90/1/3 89/1/3
f 92/1/3 90/1/3 91/1/3
f 93/1/3 90/1/3 92/1/3
f 95/1/3 93/1/3 92/1/3
f 95/1/3 94/1/3 93/1/3
f 96/1/3 94/1/3 95/1/3
f 97/1/3 94/1/3 96/1/3
f 99/1/3 97/1/3 96/1/3
f 99/2/3 98/2/3 97/2/3
f 100/2/3 98/2/3 99/2/3
f 101/1/3 99/1/3 96/1/3
f 102/1/3 99/1/3 101/1/3
f 103/1/3 99/1/3 102/1/3
f 104/1/3 99/1/3 103/1/3
f 105/2/3 103/2/3 102/2/3
f 106/2/3 103/2/3 105/2/3
f 109/1/3 108/1/3 107/1/3
f 110/1/3 108/1/3 109/1/3
f 114/2/3 111/2/3 110/2/3
f 115/2/3 111/2/3 114/2/3
f 116/2/3 113/2/3 112/2/3
f 117/2/3 113/2/3 116/2/3
f 122/2/3 121/2/3 120/2/3
f 123/2/3 121/2/3 122/2/3
f 124/1/3 119/1/3 118/1/3
f 125/1/3 119/1/3 124/1/3
f 126/2/3 125/2/3 124/2/3
f 127/2/3 125/2/3 126/2/3
f 130/2/4 131/2/4 132/2/4
f 132/2/4 131/2/4 133/2/4
f 128/1/4 129/1/4 134/1/4
f 134/1/4 129/1/4 135/1/4
f 134/2/4 135/2/4 136/2/4
f 136/2/4 135/2/4 137/2/4
f 138/1/4 139/1/4 140/1/4
f 140/1/4 139/1/4 141/1/4
f 141/2/4 142/2/4 145/2/4
f 145/2/4 142/2/4 146/2/4
f 143/2/4 144/2/4 147/2/4
f 147/2/4 144/2/4 148/2/4
f 149/1/4 150/1/4 151/1/4
f 149/1/4 151/1/4 153/1/4
f 151/1/4 152/1/4 153/1/4
f 153/1/4 152/1/4 154/1/4
f 154/1/4 152/1/4 155/1/4
f 154/1/4 155/1/4 157/1/4
f 155/1/4 156/1/4 157/1/4
f 157/1/4 156/1/4 158/1/4
f 158/1/4 156/1/4 159/1/4
f 158/1/4 159/1/4 161/1/4
f 159/1/4 160/1/4 161/1/4
f 161/1/4 160/1/4 162/1/4
f 162/1/4 160/1/4 163/1/4
f 162/1/4 163/1/4 165/1/4
f 163/2/4 164/2/4 165/2/4
f 165/2/4 164/2/4 166/2/4
f 162/1/4 165/1/4 167/1/4
f 167/1/4 165/1/4 168/1/4
f 168/1/4 165/1/4 169/1/4
f 169/1/4 165/1/4 170/1/4
f 168/2/4 169/2/4 171/2/4
f 171/2/4 169/2/4 172/2/4
f 175/1/5 174/1/5 173/1/5
f 176/1/5 174/1/5 175/1/5
f 179/1/5 178/1/5 177/1/5
f 180/1/5 178/1/5 179/1/5
f 183/1/5 182/1/5 181/1/5
f 185/1/5 183/1/5 181/1/5
f 185/1/5 184/1/5 183/1/5
f 186/1/5 184/1/5 185/1/5
f 187/1/5 185/1/5 181/1/5
f 188/1/5 185/1/5 187/1/5
f 191/1/5 190/1/5 189/1/5
f 192/1/5 190/1/5 191/1/5
f 195/2/5 193/2/5 192/2/5
f 196/2/5 193/2/5 195/2/5
f 197/1/5 195/1/5 194/1/5
f 198/1/5 195/1/5 197/1/5
f 201/2/5 200/2/5 199/2/5
f 202/2/5 200/2/5 201/2/5
f 205/2/5 204/2/5 203/2/5
f 206/2/5 204/2/5 205/2/5
f 210/1/5 208/1/5 207/1/5
f 211/2/5 209/2/5 208/2/5
f 211/1/5 208/1/5 210/1/5
f 212/2/5 209/2/5 211/2/5
f 213/1/6 214/1/6 215/1/6
f 215/1/6 214/1/6 216/1/6
f 219/1/6 220/1/6 222/1/6
f 220/2/6 221/2/6 223/2/6
f 222/1/6 220/1/6 223/1/6
f 223/2/6 221/2/6 224/2/6
f 217/1/6 218/1/6 225/1/6
f 225/1/6 218/1/6 226/1/6
f 229/2/6 230/2/6 231/2/6
f 231/2/6 230/2/6 232/2/6
f 227/1/6 228/1/6 235/1/6
f 235/1/6 228/1/6 236/1/6
f 233/2/6 234/2/6 237/2/6
f 237/2/6 234/2/6 238/2/6
f 239/1/6 240/1/6 243/1/6
f 241/1/6 242/1/6 244/1/6
f 244/1/6 242/1/6 245/1/6
f 239/1/6 243/1/6 247/1/6
f 243/1/6 244/1/6 247/1/6
f 244/1/6 245/1/6 247/1/6
f 247/1/6 245/1/6 248/1/6
f 245/2/6 246/2/6 249/2/6
f 248/1/6 245/1/6 249/1/6
f 249/2/6 246/2/6 250/2/6
f 239/1/6 247/1/6 251/1/6
f 251/1/6 247/1/6 252/1/6
f 248/1/6 249/1/6 253/1/6
f 253/1/6 249/1/6 254/1/6
f 255/2/6 256/2/6 257/2/6
f 257/2/6 256/2/6 258/2/6
f 259/2/6 260/2/6 261/2/6
f 261/2/6 260/2/6 262/2/6
